<svg width="90" height="18" viewBox="0 0 90 18" fill="none" xmlns="http://www.w3.org/2000/svg">
<path d="M5.634 14.216C4.638 14.216 3.672 14.084 2.736 13.82C1.812 13.544 1.068 13.19 0.504 12.758L1.494 10.562C2.034 10.958 2.676 11.276 3.42 11.516C4.164 11.756 4.908 11.876 5.652 11.876C6.48 11.876 7.092 11.756 7.488 11.516C7.884 11.264 8.082 10.934 8.082 10.526C8.082 10.226 7.962 9.98 7.722 9.788C7.494 9.584 7.194 9.422 6.822 9.302C6.462 9.182 5.97 9.05 5.346 8.906C4.386 8.678 3.6 8.45 2.988 8.222C2.376 7.994 1.848 7.628 1.404 7.124C0.972 6.62 0.756 5.948 0.756 5.108C0.756 4.376 0.954 3.716 1.35 3.128C1.746 2.528 2.34 2.054 3.132 1.706C3.936 1.358 4.914 1.184 6.066 1.184C6.87 1.184 7.656 1.28 8.424 1.472C9.192 1.664 9.864 1.94 10.44 2.3L9.54 4.514C8.376 3.854 7.212 3.524 6.048 3.524C5.232 3.524 4.626 3.656 4.23 3.92C3.846 4.184 3.654 4.532 3.654 4.964C3.654 5.396 3.876 5.72 4.32 5.936C4.776 6.14 5.466 6.344 6.39 6.548C7.35 6.776 8.136 7.004 8.748 7.232C9.36 7.46 9.882 7.82 10.314 8.312C10.758 8.804 10.98 9.47 10.98 10.31C10.98 11.03 10.776 11.69 10.368 12.29C9.972 12.878 9.372 13.346 8.568 13.694C7.764 14.042 6.786 14.216 5.634 14.216ZM17.3825 14.144C16.3625 14.144 15.4445 13.934 14.6285 13.514C13.8245 13.082 13.1945 12.488 12.7385 11.732C12.2825 10.976 12.0545 10.118 12.0545 9.158C12.0545 8.198 12.2825 7.34 12.7385 6.584C13.1945 5.828 13.8245 5.24 14.6285 4.82C15.4445 4.388 16.3625 4.172 17.3825 4.172C18.4025 4.172 19.3145 4.388 20.1185 4.82C20.9225 5.24 21.5525 5.828 22.0085 6.584C22.4645 7.34 22.6925 8.198 22.6925 9.158C22.6925 10.118 22.4645 10.976 22.0085 11.732C21.5525 12.488 20.9225 13.082 20.1185 13.514C19.3145 13.934 18.4025 14.144 17.3825 14.144ZM17.3825 11.84C18.1025 11.84 18.6905 11.6 19.1465 11.12C19.6145 10.628 19.8485 9.974 19.8485 9.158C19.8485 8.342 19.6145 7.694 19.1465 7.214C18.6905 6.722 18.1025 6.476 17.3825 6.476C16.6625 6.476 16.0685 6.722 15.6005 7.214C15.1325 7.694 14.8985 8.342 14.8985 9.158C14.8985 9.974 15.1325 10.628 15.6005 11.12C16.0685 11.6 16.6625 11.84 17.3825 11.84ZM34.3254 4.316V14H31.6614V12.848C31.2894 13.268 30.8454 13.592 30.3294 13.82C29.8134 14.036 29.2554 14.144 28.6554 14.144C27.3834 14.144 26.3754 13.778 25.6314 13.046C24.8874 12.314 24.5154 11.228 24.5154 9.788V4.316H27.3234V9.374C27.3234 10.934 27.9774 11.714 29.2854 11.714C29.9574 11.714 30.4974 11.498 30.9054 11.066C31.3134 10.622 31.5174 9.968 31.5174 9.104V4.316H34.3254ZM46.7909 0.643999V14H44.1089V12.884C43.4129 13.724 42.4049 14.144 41.0849 14.144C40.1729 14.144 39.3449 13.94 38.6009 13.532C37.8689 13.124 37.2929 12.542 36.8729 11.786C36.4529 11.03 36.2429 10.154 36.2429 9.158C36.2429 8.162 36.4529 7.286 36.8729 6.53C37.2929 5.774 37.8689 5.192 38.6009 4.784C39.3449 4.376 40.1729 4.172 41.0849 4.172C42.3209 4.172 43.2869 4.562 43.9829 5.342V0.643999H46.7909ZM41.5709 11.84C42.2789 11.84 42.8669 11.6 43.3349 11.12C43.8029 10.628 44.0369 9.974 44.0369 9.158C44.0369 8.342 43.8029 7.694 43.3349 7.214C42.8669 6.722 42.2789 6.476 41.5709 6.476C40.8509 6.476 40.2569 6.722 39.7889 7.214C39.3209 7.694 39.0869 8.342 39.0869 9.158C39.0869 9.974 39.3209 10.628 39.7889 11.12C40.2569 11.6 40.8509 11.84 41.5709 11.84ZM58.8758 9.194C58.8758 9.23 58.8578 9.482 58.8218 9.95H51.4958C51.6278 10.55 51.9398 11.024 52.4318 11.372C52.9238 11.72 53.5358 11.894 54.2678 11.894C54.7718 11.894 55.2158 11.822 55.5998 11.678C55.9958 11.522 56.3618 11.282 56.6978 10.958L58.1918 12.578C57.2798 13.622 55.9478 14.144 54.1958 14.144C53.1038 14.144 52.1378 13.934 51.2978 13.514C50.4578 13.082 49.8098 12.488 49.3538 11.732C48.8978 10.976 48.6698 10.118 48.6698 9.158C48.6698 8.21 48.8918 7.358 49.3358 6.602C49.7918 5.834 50.4098 5.24 51.1898 4.82C51.9818 4.388 52.8638 4.172 53.8358 4.172C54.7838 4.172 55.6418 4.376 56.4098 4.784C57.1778 5.192 57.7778 5.78 58.2098 6.548C58.6538 7.304 58.8758 8.186 58.8758 9.194ZM53.8538 6.296C53.2178 6.296 52.6838 6.476 52.2518 6.836C51.8198 7.196 51.5558 7.688 51.4598 8.312H56.2298C56.1338 7.7 55.8698 7.214 55.4378 6.854C55.0058 6.482 54.4778 6.296 53.8538 6.296ZM73.1472 4.172C74.3592 4.172 75.3192 4.532 76.0272 5.252C76.7472 5.96 77.1072 7.028 77.1072 8.456V14H74.2992V8.888C74.2992 8.12 74.1372 7.55 73.8132 7.178C73.5012 6.794 73.0512 6.602 72.4632 6.602C71.8032 6.602 71.2812 6.818 70.8972 7.25C70.5132 7.67 70.3212 8.3 70.3212 9.14V14H67.5132V8.888C67.5132 7.364 66.9012 6.602 65.6772 6.602C65.0292 6.602 64.5132 6.818 64.1292 7.25C63.7452 7.67 63.5532 8.3 63.5532 9.14V14H60.7452V4.316H63.4272V5.432C63.7872 5.024 64.2252 4.712 64.7412 4.496C65.2692 4.28 65.8452 4.172 66.4692 4.172C67.1532 4.172 67.7712 4.31 68.3232 4.586C68.8752 4.85 69.3192 5.24 69.6552 5.756C70.0512 5.252 70.5492 4.862 71.1492 4.586C71.7612 4.31 72.4272 4.172 73.1472 4.172ZM89.0603 4.316L84.6863 14.594C84.2423 15.71 83.6903 16.496 83.0303 16.952C82.3823 17.408 81.5963 17.636 80.6723 17.636C80.1683 17.636 79.6703 17.558 79.1783 17.402C78.6863 17.246 78.2843 17.03 77.9723 16.754L78.9983 14.756C79.2143 14.948 79.4603 15.098 79.7363 15.206C80.0243 15.314 80.3063 15.368 80.5823 15.368C80.9663 15.368 81.2783 15.272 81.5183 15.08C81.7583 14.9 81.9743 14.594 82.1663 14.162L82.2023 14.072L78.0083 4.316H80.9063L83.6243 10.886L86.3603 4.316H89.0603Z" fill="black"/>
</svg>
