<svg width="50" height="50" viewBox="0 0 50 50" fill="none" xmlns="http://www.w3.org/2000/svg">
<rect width="50" height="49.3878" rx="10" fill="white"/>
<path d="M20 24.6939H12.6667C11.7332 24.6939 11.2665 24.6939 10.91 24.8718C10.5964 25.0284 10.3414 25.2781 10.1817 25.5853C10 25.9346 10 26.3918 10 27.3061V36.7755C10 37.6899 10 38.1471 10.1817 38.4963C10.3414 38.8035 10.5964 39.0533 10.91 39.2098C11.2665 39.3878 11.7332 39.3878 12.6667 39.3878H20M20 39.3878H30M20 39.3878L20 19.1429C20 18.2285 20 17.7713 20.1817 17.4221C20.3414 17.1149 20.5964 16.8651 20.91 16.7086C21.2665 16.5306 21.7332 16.5306 22.6667 16.5306H27.3333C28.2668 16.5306 28.7335 16.5306 29.09 16.7086C29.4036 16.8651 29.6586 17.1149 29.8183 17.4221C30 17.7713 30 18.2285 30 19.1429V39.3878M30 39.3878H37.3333C38.2668 39.3878 38.7335 39.3878 39.09 39.2098C39.4036 39.0533 39.6586 38.8035 39.8183 38.4963C40 38.1471 40 37.6899 40 36.7755V12.6122C40 11.6979 40 11.2407 39.8183 10.8914C39.6586 10.5842 39.4036 10.3345 39.09 10.1779C38.7335 10 38.2668 10 37.3333 10H32.6667C31.7332 10 31.2665 10 30.91 10.1779C30.5964 10.3345 30.3414 10.5842 30.1817 10.8914C30 11.2407 30 11.6979 30 12.6122V18.1633" stroke="#FF8100" stroke-width="3" stroke-linecap="round" stroke-linejoin="round"/>
</svg>
