<svg width="60" height="52" viewBox="0 0 60 52" fill="none" xmlns="http://www.w3.org/2000/svg">
<rect width="60" height="52" rx="10" fill="white"/>
<path d="M50 19H10M10 27H17.0934C18.1737 27 18.7139 27 19.2363 27.0931C19.6999 27.1758 20.1522 27.3127 20.5838 27.5011C21.0701 27.7134 21.5195 28.013 22.4185 28.6123L23.5815 29.3877C24.4805 29.987 24.9299 30.2866 25.4162 30.4989C25.8478 30.6873 26.3001 30.8242 26.7637 30.9069C27.2861 31 27.8263 31 28.9066 31H31.0934C32.1737 31 32.7139 31 33.2363 30.9069C33.6999 30.8242 34.1522 30.6873 34.5838 30.4989C35.0701 30.2866 35.5195 29.987 36.4185 29.3877L37.5815 28.6123C38.4804 28.013 38.9299 27.7134 39.4162 27.5011C39.8478 27.3127 40.3001 27.1758 40.7637 27.0931C41.2861 27 41.8263 27 42.9066 27H50M10 16.4L10 35.6C10 37.8402 10 38.9603 10.436 39.816C10.8195 40.5686 11.4314 41.1805 12.184 41.564C13.0397 42 14.1598 42 16.4 42L43.6 42C45.8402 42 46.9603 42 47.816 41.564C48.5686 41.1805 49.1805 40.5686 49.564 39.816C50 38.9603 50 37.8402 50 35.6V16.4C50 14.1598 50 13.0397 49.564 12.184C49.1805 11.4314 48.5686 10.8195 47.816 10.436C46.9603 10 45.8402 10 43.6 10L16.4 10C14.1598 10 13.0397 10 12.184 10.436C11.4314 10.8195 10.8195 11.4314 10.436 12.184C10 13.0397 10 14.1598 10 16.4Z" stroke="#FF8100" stroke-width="3" stroke-linecap="round" stroke-linejoin="round"/>
</svg>
