<svg width="55" height="52" viewBox="0 0 55 52" fill="none" xmlns="http://www.w3.org/2000/svg">
<rect width="55" height="51.5" rx="10" fill="white"/>
<path d="M10 29.25L45 29.25M20.5 41.5H34.5M18.4 36.25H36.6C39.5403 36.25 41.0104 36.25 42.1334 35.6778C43.1213 35.1744 43.9244 34.3713 44.4278 33.3835C45 32.2604 45 30.7903 45 27.85V18.4C45 15.4597 45 13.9896 44.4278 12.8665C43.9244 11.8787 43.1213 11.0756 42.1334 10.5722C41.0104 10 39.5403 10 36.6 10H18.4C15.4597 10 13.9896 10 12.8665 10.5722C11.8787 11.0756 11.0756 11.8787 10.5722 12.8665C10 13.9896 10 15.4597 10 18.4V27.85C10 30.7903 10 32.2604 10.5722 33.3835C11.0756 34.3713 11.8787 35.1744 12.8665 35.6778C13.9896 36.25 15.4597 36.25 18.4 36.25Z" stroke="#FF8100" stroke-width="3" stroke-linecap="round" stroke-linejoin="round"/>
</svg>
